<svg id="svg" version="1.1" xmlns="http://www.w3.org/2000/svg" xmlns:xlink="http://www.w3.org/1999/xlink" width="400" height="400" viewBox="0, 0, 400,400"><g id="svgg"><path id="path0" d="M182.180 51.978 C 181.971 52.186,180.316 52.391,178.502 52.434 C 176.292 52.487,175.056 52.692,174.753 53.056 C 174.462 53.407,173.426 53.600,171.831 53.600 C 170.472 53.600,169.189 53.770,168.980 53.977 C 168.771 54.184,167.547 54.396,166.261 54.447 C 164.759 54.507,163.848 54.730,163.718 55.070 C 163.588 55.409,162.817 55.600,161.581 55.600 C 160.517 55.600,159.536 55.780,159.400 56.000 C 159.264 56.220,158.438 56.400,157.564 56.400 C 156.520 56.400,155.896 56.606,155.745 57.000 C 155.583 57.420,154.928 57.600,153.557 57.600 C 152.481 57.600,151.600 57.780,151.600 58.000 C 151.600 58.220,150.964 58.400,150.187 58.400 C 149.301 58.400,148.689 58.623,148.545 59.000 C 148.404 59.366,147.798 59.600,146.991 59.600 C 146.262 59.600,145.607 59.766,145.533 59.969 C 145.460 60.173,144.770 60.417,144.000 60.512 C 143.228 60.607,142.645 60.890,142.700 61.142 C 142.762 61.426,142.193 61.600,141.200 61.600 C 140.320 61.600,139.600 61.780,139.600 62.000 C 139.600 62.220,139.169 62.400,138.643 62.400 C 138.116 62.400,137.582 62.670,137.455 63.000 C 137.329 63.330,136.797 63.600,136.274 63.600 C 135.255 63.600,132.966 64.608,132.584 65.225 C 132.457 65.431,131.834 65.600,131.200 65.600 C 130.566 65.600,129.936 65.780,129.800 66.000 C 129.664 66.220,129.198 66.400,128.764 66.400 C 128.330 66.400,127.871 66.670,127.745 67.000 C 127.618 67.330,127.084 67.600,126.557 67.600 C 126.031 67.600,125.600 67.780,125.600 68.000 C 125.600 68.220,125.234 68.400,124.787 68.400 C 124.341 68.400,123.871 68.670,123.745 69.000 C 123.618 69.330,123.084 69.600,122.557 69.600 C 122.031 69.600,121.600 69.760,121.600 69.957 C 121.600 70.153,121.150 70.426,120.600 70.564 C 120.050 70.702,119.600 70.992,119.600 71.208 C 119.600 71.423,119.150 71.600,118.600 71.600 C 118.050 71.600,117.600 71.739,117.600 71.909 C 117.600 72.079,116.925 72.572,116.100 73.005 C 115.275 73.438,114.492 73.941,114.360 74.123 C 114.228 74.304,113.778 74.510,113.360 74.580 C 112.942 74.649,112.645 74.907,112.700 75.153 C 112.755 75.399,112.566 75.600,112.280 75.600 C 111.361 75.600,109.606 76.584,109.603 77.100 C 109.601 77.375,109.216 77.600,108.746 77.600 C 108.276 77.600,107.475 78.050,106.965 78.600 C 106.455 79.150,105.805 79.606,105.519 79.613 C 104.803 79.630,103.600 80.590,103.600 81.144 C 103.600 81.395,103.231 81.600,102.780 81.600 C 102.329 81.600,101.312 82.230,100.519 83.000 C 99.726 83.770,98.880 84.403,98.639 84.407 C 98.397 84.411,97.776 84.861,97.258 85.407 C 96.740 85.953,96.155 86.400,95.958 86.400 C 95.761 86.400,95.600 86.670,95.600 87.000 C 95.600 87.330,95.285 87.600,94.900 87.601 C 94.515 87.601,92.960 88.771,91.444 90.201 C 89.928 91.630,88.527 92.800,88.331 92.800 C 87.784 92.800,76.400 104.318,76.400 104.872 C 76.400 105.140,75.530 106.178,74.468 107.180 C 73.405 108.181,72.031 109.765,71.414 110.700 C 70.798 111.635,70.138 112.400,69.947 112.400 C 69.756 112.400,69.600 112.589,69.600 112.819 C 69.600 113.050,69.150 113.655,68.600 114.165 C 68.050 114.675,67.600 115.305,67.600 115.565 C 67.600 115.825,67.150 116.455,66.600 116.965 C 66.050 117.475,65.600 118.276,65.600 118.746 C 65.600 119.216,65.395 119.600,65.144 119.600 C 64.590 119.600,63.630 120.803,63.613 121.519 C 63.606 121.805,63.150 122.455,62.600 122.965 C 62.050 123.475,61.600 124.276,61.600 124.746 C 61.600 125.238,61.346 125.600,61.000 125.600 C 60.670 125.600,60.400 125.870,60.400 126.200 C 60.400 126.530,60.220 126.800,60.000 126.800 C 59.780 126.800,59.600 127.141,59.600 127.557 C 59.600 127.974,59.330 128.418,59.000 128.545 C 58.670 128.671,58.400 129.130,58.400 129.564 C 58.400 129.998,58.220 130.464,58.000 130.600 C 57.780 130.736,57.600 131.097,57.600 131.403 C 57.600 131.709,57.150 132.444,56.600 133.038 C 56.050 133.631,55.600 134.451,55.600 134.858 C 55.600 135.266,55.455 135.600,55.277 135.600 C 54.873 135.600,53.600 138.436,53.600 139.334 C 53.600 139.700,53.434 140.000,53.232 140.000 C 53.029 140.000,52.745 140.538,52.601 141.195 C 52.457 141.853,52.172 142.494,51.969 142.619 C 51.766 142.745,51.600 143.177,51.600 143.581 C 51.600 143.984,51.353 144.409,51.050 144.525 C 50.748 144.642,50.399 145.246,50.274 145.868 C 49.724 148.624,49.449 149.420,48.942 149.720 C 48.644 149.896,48.400 150.560,48.400 151.196 C 48.400 151.832,48.220 152.464,48.000 152.600 C 47.780 152.736,47.594 153.332,47.587 153.924 C 47.580 154.516,47.310 155.349,46.987 155.776 C 46.664 156.204,46.400 156.958,46.400 157.453 C 46.400 157.948,46.220 158.464,46.000 158.600 C 45.780 158.736,45.600 159.445,45.600 160.175 C 45.600 160.905,45.330 161.726,45.000 162.000 C 44.655 162.286,44.400 163.158,44.400 164.049 C 44.400 164.902,44.220 165.600,44.000 165.600 C 43.780 165.600,43.600 166.485,43.600 167.567 C 43.600 168.715,43.405 169.598,43.131 169.690 C 42.863 169.779,42.587 170.952,42.488 172.423 C 42.392 173.840,42.153 175.171,41.957 175.380 C 41.760 175.589,41.600 176.990,41.600 178.494 C 41.600 180.296,41.388 181.552,40.977 182.179 C 40.144 183.450,40.262 214.821,41.100 215.100 C 41.443 215.215,41.600 216.251,41.600 218.410 C 41.600 220.138,41.780 221.664,42.000 221.800 C 42.220 221.936,42.400 223.014,42.400 224.195 C 42.400 225.571,42.616 226.559,43.000 226.943 C 43.356 227.299,43.600 228.277,43.600 229.348 C 43.600 230.341,43.780 231.264,44.000 231.400 C 44.220 231.536,44.400 232.335,44.400 233.175 C 44.400 234.044,44.658 234.916,45.000 235.200 C 45.330 235.474,45.600 236.205,45.600 236.825 C 45.600 237.445,45.780 238.064,46.000 238.200 C 46.220 238.336,46.400 239.072,46.400 239.836 C 46.400 240.702,46.626 241.312,47.000 241.455 C 47.370 241.597,47.600 242.205,47.600 243.043 C 47.600 243.789,47.780 244.400,48.000 244.400 C 48.220 244.400,48.400 245.021,48.400 245.780 C 48.400 246.539,48.626 247.304,48.902 247.480 C 49.456 247.833,50.400 250.266,50.400 251.341 C 50.400 251.717,50.670 252.129,51.000 252.255 C 51.330 252.382,51.600 252.916,51.600 253.443 C 51.600 253.969,51.780 254.400,52.000 254.400 C 52.220 254.400,52.400 254.828,52.400 255.351 C 52.400 255.874,52.670 256.526,53.000 256.800 C 53.330 257.074,53.600 257.518,53.600 257.788 C 53.600 258.437,54.751 260.722,55.225 261.016 C 55.431 261.143,55.600 261.597,55.600 262.024 C 55.600 262.451,55.780 262.800,56.000 262.800 C 56.220 262.800,56.400 263.160,56.400 263.600 C 56.400 264.044,56.667 264.400,57.000 264.400 C 57.373 264.400,57.600 264.778,57.600 265.400 C 57.600 265.950,57.780 266.400,58.000 266.400 C 58.220 266.400,58.400 266.766,58.400 267.213 C 58.400 267.659,58.670 268.129,59.000 268.255 C 59.330 268.382,59.600 268.800,59.600 269.184 C 59.600 269.569,60.050 270.369,60.600 270.962 C 61.150 271.556,61.606 272.257,61.613 272.521 C 61.631 273.204,62.605 274.400,63.144 274.400 C 63.395 274.400,63.600 274.784,63.600 275.254 C 63.600 275.724,64.050 276.525,64.600 277.035 C 65.150 277.545,65.600 278.240,65.600 278.581 C 65.600 278.921,65.780 279.200,66.000 279.200 C 66.220 279.200,66.400 279.470,66.400 279.800 C 66.400 280.130,66.670 280.400,67.000 280.400 C 67.330 280.400,67.600 280.751,67.600 281.180 C 67.600 281.609,67.857 282.104,68.172 282.280 C 68.486 282.456,68.801 282.780,68.872 283.000 C 68.942 283.220,69.135 283.355,69.300 283.300 C 69.465 283.245,69.600 283.388,69.600 283.617 C 69.600 283.847,70.050 284.520,70.600 285.113 C 71.150 285.707,71.600 286.424,71.600 286.708 C 71.600 286.993,71.869 287.328,72.198 287.454 C 72.526 287.581,72.696 287.845,72.574 288.042 C 72.452 288.239,72.633 288.400,72.976 288.400 C 73.319 288.400,73.600 288.640,73.600 288.932 C 73.600 289.225,74.050 289.706,74.600 290.000 C 75.150 290.294,75.600 290.693,75.600 290.885 C 75.600 291.077,76.050 291.720,76.600 292.313 C 77.150 292.907,77.600 293.524,77.600 293.685 C 77.600 293.997,85.944 302.400,86.254 302.400 C 86.353 302.400,86.920 302.850,87.513 303.400 C 88.107 303.950,88.819 304.400,89.096 304.400 C 89.373 304.400,89.600 304.593,89.600 304.829 C 89.600 305.278,90.579 306.400,90.971 306.400 C 91.097 306.400,91.920 307.120,92.800 308.000 C 93.680 308.880,94.592 309.600,94.827 309.600 C 95.062 309.600,95.848 310.230,96.574 311.000 C 97.300 311.770,98.148 312.400,98.458 312.400 C 98.768 312.400,99.306 312.715,99.654 313.100 C 100.580 314.127,101.959 315.200,102.350 315.200 C 102.538 315.200,103.301 315.737,104.046 316.394 C 104.791 317.050,105.625 317.590,105.900 317.594 C 106.175 317.597,106.400 317.780,106.400 318.000 C 106.400 318.220,106.651 318.400,106.957 318.400 C 107.264 318.400,107.622 318.681,107.754 319.025 C 107.886 319.369,108.161 319.548,108.365 319.422 C 108.569 319.296,109.007 319.464,109.339 319.796 C 109.671 320.128,110.058 320.400,110.198 320.400 C 110.339 320.400,111.043 320.850,111.764 321.400 C 112.486 321.950,113.354 322.400,113.695 322.400 C 114.036 322.400,114.418 322.670,114.545 323.000 C 114.671 323.330,115.141 323.600,115.587 323.600 C 116.034 323.600,116.400 323.780,116.400 324.000 C 116.400 324.220,116.670 324.400,117.000 324.400 C 117.330 324.400,117.600 324.560,117.600 324.757 C 117.600 324.953,118.050 325.226,118.600 325.364 C 119.150 325.502,119.600 325.792,119.600 326.008 C 119.600 326.223,120.031 326.400,120.557 326.400 C 121.084 326.400,121.618 326.670,121.745 327.000 C 121.871 327.330,122.341 327.600,122.787 327.600 C 123.234 327.600,123.600 327.780,123.600 328.000 C 123.600 328.220,124.031 328.400,124.557 328.400 C 125.084 328.400,125.618 328.670,125.745 329.000 C 125.871 329.330,126.341 329.600,126.787 329.600 C 127.234 329.600,127.600 329.780,127.600 330.000 C 127.600 330.220,128.050 330.400,128.600 330.400 C 129.150 330.400,129.600 330.572,129.600 330.782 C 129.600 330.992,130.230 331.282,131.000 331.426 C 131.770 331.571,132.400 331.849,132.400 332.045 C 132.400 332.240,132.831 332.400,133.357 332.400 C 133.884 332.400,134.409 332.647,134.525 332.950 C 134.642 333.252,135.246 333.601,135.868 333.726 C 138.624 334.276,139.420 334.551,139.720 335.058 C 139.896 335.356,140.560 335.600,141.196 335.600 C 141.832 335.600,142.464 335.780,142.600 336.000 C 142.736 336.220,143.447 336.400,144.181 336.400 C 144.997 336.400,145.604 336.633,145.745 337.000 C 145.878 337.347,146.476 337.600,147.164 337.600 C 147.818 337.600,148.464 337.780,148.600 338.000 C 148.736 338.220,149.389 338.400,150.052 338.400 C 150.715 338.400,151.527 338.670,151.857 339.000 C 152.187 339.330,153.154 339.600,154.005 339.600 C 154.856 339.600,155.664 339.780,155.800 340.000 C 155.936 340.220,156.712 340.406,157.524 340.413 C 158.336 340.420,159.349 340.690,159.776 341.013 C 160.204 341.336,161.239 341.600,162.076 341.600 C 162.914 341.600,163.600 341.780,163.600 342.000 C 163.600 342.221,164.650 342.400,165.951 342.400 C 167.553 342.400,168.461 342.591,168.800 343.000 C 169.154 343.427,170.092 343.600,172.049 343.600 C 173.616 343.600,174.800 343.772,174.800 344.000 C 174.800 344.237,176.267 344.400,178.400 344.400 C 180.667 344.400,182.000 344.557,182.000 344.824 C 182.000 345.057,182.180 345.136,182.400 345.000 C 182.620 344.864,182.800 344.943,182.800 345.176 C 182.800 345.468,188.457 345.600,201.000 345.600 C 213.543 345.600,219.200 345.468,219.200 345.176 C 219.200 344.943,219.380 344.864,219.600 345.000 C 219.820 345.136,220.000 345.057,220.000 344.824 C 220.000 344.557,221.333 344.400,223.600 344.400 C 225.733 344.400,227.200 344.237,227.200 344.000 C 227.200 343.772,228.384 343.600,229.951 343.600 C 231.908 343.600,232.846 343.427,233.200 343.000 C 233.539 342.591,234.447 342.400,236.049 342.400 C 237.350 342.400,238.400 342.221,238.400 342.000 C 238.400 341.780,239.086 341.600,239.924 341.600 C 240.761 341.600,241.796 341.336,242.224 341.013 C 242.651 340.690,243.664 340.420,244.476 340.413 C 245.288 340.406,246.064 340.220,246.200 340.000 C 246.336 339.780,247.144 339.600,247.995 339.600 C 248.846 339.600,249.813 339.330,250.143 339.000 C 250.473 338.670,251.285 338.400,251.948 338.400 C 252.611 338.400,253.264 338.220,253.400 338.000 C 253.536 337.780,254.182 337.600,254.836 337.600 C 255.524 337.600,256.122 337.347,256.255 337.000 C 256.396 336.633,257.003 336.400,257.819 336.400 C 258.553 336.400,259.264 336.220,259.400 336.000 C 259.536 335.780,260.168 335.600,260.804 335.600 C 261.440 335.600,262.104 335.356,262.280 335.058 C 262.580 334.551,263.376 334.276,266.132 333.726 C 266.754 333.601,267.358 333.252,267.475 332.950 C 267.591 332.647,268.116 332.400,268.643 332.400 C 269.169 332.400,269.600 332.240,269.600 332.045 C 269.600 331.849,270.230 331.571,271.000 331.426 C 271.770 331.282,272.400 330.992,272.400 330.782 C 272.400 330.572,272.850 330.400,273.400 330.400 C 273.950 330.400,274.400 330.220,274.400 330.000 C 274.400 329.780,274.766 329.600,275.213 329.600 C 275.659 329.600,276.129 329.330,276.255 329.000 C 276.382 328.670,276.916 328.400,277.443 328.400 C 277.969 328.400,278.400 328.220,278.400 328.000 C 278.400 327.780,278.766 327.600,279.213 327.600 C 279.659 327.600,280.129 327.330,280.255 327.000 C 280.382 326.670,280.916 326.400,281.443 326.400 C 281.969 326.400,282.400 326.223,282.400 326.008 C 282.400 325.792,282.850 325.502,283.400 325.364 C 283.950 325.226,284.400 324.953,284.400 324.757 C 284.400 324.560,284.670 324.400,285.000 324.400 C 285.330 324.400,285.600 324.220,285.600 324.000 C 285.600 323.780,285.966 323.600,286.413 323.600 C 286.859 323.600,287.329 323.330,287.455 323.000 C 287.582 322.670,287.964 322.400,288.305 322.400 C 288.646 322.400,289.514 321.950,290.236 321.400 C 290.957 320.850,291.661 320.400,291.802 320.400 C 291.942 320.400,292.329 320.128,292.661 319.796 C 292.993 319.464,293.431 319.296,293.635 319.422 C 293.839 319.548,294.114 319.369,294.246 319.025 C 294.378 318.681,294.736 318.400,295.043 318.400 C 295.349 318.400,295.600 318.220,295.600 318.000 C 295.600 317.780,295.825 317.597,296.100 317.594 C 296.375 317.590,297.209 317.050,297.954 316.394 C 298.699 315.737,299.462 315.200,299.650 315.200 C 300.041 315.200,301.420 314.127,302.346 313.100 C 302.694 312.715,303.232 312.400,303.542 312.400 C 303.852 312.400,304.700 311.770,305.426 311.000 C 306.152 310.230,306.938 309.600,307.173 309.600 C 307.408 309.600,308.320 308.880,309.200 308.000 C 310.080 307.120,310.903 306.400,311.029 306.400 C 311.421 306.400,312.400 305.278,312.400 304.829 C 312.400 304.593,312.627 304.400,312.904 304.400 C 313.181 304.400,313.893 303.950,314.487 303.400 C 315.080 302.850,315.647 302.400,315.746 302.400 C 316.056 302.400,324.400 293.997,324.400 293.685 C 324.400 293.524,324.850 292.907,325.400 292.313 C 325.950 291.720,326.400 291.077,326.400 290.885 C 326.400 290.693,326.850 290.294,327.400 290.000 C 327.950 289.706,328.400 289.225,328.400 288.932 C 328.400 288.640,328.681 288.400,329.024 288.400 C 329.367 288.400,329.535 288.219,329.398 287.997 C 329.261 287.776,329.431 287.486,329.775 287.354 C 330.119 287.222,330.400 286.907,330.400 286.653 C 330.400 286.399,330.850 285.707,331.400 285.113 C 331.950 284.520,332.400 283.847,332.400 283.617 C 332.400 283.388,332.562 283.245,332.760 283.300 C 332.958 283.355,333.093 283.252,333.060 283.072 C 333.027 282.891,333.315 282.567,333.700 282.352 C 334.085 282.137,334.400 281.609,334.400 281.180 C 334.400 280.751,334.670 280.400,335.000 280.400 C 335.330 280.400,335.600 280.130,335.600 279.800 C 335.600 279.470,335.780 279.200,336.000 279.200 C 336.220 279.200,336.400 278.921,336.400 278.581 C 336.400 278.240,336.850 277.545,337.400 277.035 C 337.950 276.525,338.400 275.724,338.400 275.254 C 338.400 274.784,338.605 274.400,338.856 274.400 C 339.395 274.400,340.369 273.204,340.387 272.521 C 340.394 272.257,340.850 271.556,341.400 270.962 C 341.950 270.369,342.400 269.569,342.400 269.184 C 342.400 268.800,342.670 268.382,343.000 268.255 C 343.330 268.129,343.600 267.659,343.600 267.213 C 343.600 266.766,343.780 266.400,344.000 266.400 C 344.220 266.400,344.400 265.950,344.400 265.400 C 344.400 264.778,344.627 264.400,345.000 264.400 C 345.333 264.400,345.600 264.044,345.600 263.600 C 345.600 263.160,345.780 262.800,346.000 262.800 C 346.220 262.800,346.400 262.451,346.400 262.024 C 346.400 261.597,346.569 261.143,346.775 261.016 C 347.249 260.722,348.400 258.437,348.400 257.788 C 348.400 257.518,348.670 257.074,349.000 256.800 C 349.330 256.526,349.600 255.874,349.600 255.351 C 349.600 254.828,349.780 254.400,350.000 254.400 C 350.220 254.400,350.400 253.969,350.400 253.443 C 350.400 252.916,350.670 252.382,351.000 252.255 C 351.330 252.129,351.603 251.704,351.606 251.313 C 351.614 250.310,352.575 247.665,353.133 247.107 C 353.390 246.850,353.600 246.136,353.600 245.520 C 353.600 244.904,353.780 244.400,354.000 244.400 C 354.220 244.400,354.400 243.789,354.400 243.043 C 354.400 242.205,354.630 241.597,355.000 241.455 C 355.374 241.312,355.600 240.702,355.600 239.836 C 355.600 239.072,355.780 238.336,356.000 238.200 C 356.220 238.064,356.400 237.445,356.400 236.825 C 356.400 236.205,356.670 235.474,357.000 235.200 C 357.342 234.916,357.600 234.044,357.600 233.175 C 357.600 232.335,357.780 231.536,358.000 231.400 C 358.220 231.264,358.400 230.341,358.400 229.348 C 358.400 228.277,358.644 227.299,359.000 226.943 C 359.384 226.559,359.600 225.571,359.600 224.195 C 359.600 223.014,359.780 221.936,360.000 221.800 C 360.220 221.664,360.400 220.138,360.400 218.410 C 360.400 216.251,360.557 215.215,360.900 215.100 C 361.738 214.821,361.856 183.450,361.023 182.179 C 360.612 181.552,360.400 180.296,360.400 178.494 C 360.400 176.990,360.240 175.589,360.043 175.380 C 359.847 175.171,359.608 173.840,359.512 172.423 C 359.413 170.952,359.137 169.779,358.869 169.690 C 358.595 169.598,358.400 168.715,358.400 167.567 C 358.400 166.485,358.220 165.600,358.000 165.600 C 357.780 165.600,357.600 164.902,357.600 164.049 C 357.600 163.158,357.345 162.286,357.000 162.000 C 356.670 161.726,356.400 160.905,356.400 160.175 C 356.400 159.445,356.220 158.736,356.000 158.600 C 355.780 158.464,355.600 157.948,355.600 157.453 C 355.600 156.958,355.336 156.204,355.013 155.776 C 354.690 155.349,354.420 154.516,354.413 153.924 C 354.406 153.332,354.220 152.736,354.000 152.600 C 353.780 152.464,353.600 151.832,353.600 151.196 C 353.600 150.560,353.356 149.896,353.058 149.720 C 352.551 149.420,352.276 148.624,351.726 145.868 C 351.601 145.246,351.252 144.642,350.950 144.525 C 350.647 144.409,350.400 144.073,350.400 143.778 C 350.400 143.484,349.950 142.396,349.400 141.362 C 348.850 140.327,348.400 139.298,348.400 139.075 C 348.400 138.373,347.062 135.600,346.723 135.600 C 346.545 135.600,346.400 135.266,346.400 134.858 C 346.400 134.451,345.950 133.631,345.400 133.038 C 344.850 132.444,344.400 131.709,344.400 131.403 C 344.400 131.097,344.220 130.736,344.000 130.600 C 343.780 130.464,343.600 129.998,343.600 129.564 C 343.600 129.130,343.330 128.671,343.000 128.545 C 342.670 128.418,342.400 127.974,342.400 127.557 C 342.400 127.141,342.220 126.800,342.000 126.800 C 341.780 126.800,341.600 126.530,341.600 126.200 C 341.600 125.870,341.330 125.600,341.000 125.600 C 340.654 125.600,340.400 125.238,340.400 124.746 C 340.400 124.276,339.950 123.475,339.400 122.965 C 338.850 122.455,338.394 121.805,338.387 121.519 C 338.370 120.803,337.410 119.600,336.856 119.600 C 336.605 119.600,336.400 119.216,336.400 118.746 C 336.400 118.276,335.950 117.475,335.400 116.965 C 334.850 116.455,334.400 115.825,334.400 115.565 C 334.400 115.305,333.950 114.675,333.400 114.165 C 332.850 113.655,332.400 113.050,332.400 112.819 C 332.400 112.589,332.244 112.400,332.053 112.400 C 331.862 112.400,331.202 111.635,330.586 110.700 C 329.969 109.765,328.595 108.181,327.532 107.180 C 326.470 106.178,325.600 105.140,325.600 104.872 C 325.600 104.274,314.194 92.800,313.599 92.800 C 313.364 92.800,312.008 91.630,310.585 90.200 C 309.124 88.731,307.650 87.600,307.199 87.600 C 306.755 87.600,306.400 87.333,306.400 87.000 C 306.400 86.670,306.239 86.400,306.042 86.400 C 305.845 86.400,305.260 85.953,304.742 85.407 C 304.224 84.861,303.603 84.411,303.361 84.407 C 303.120 84.403,302.274 83.770,301.481 83.000 C 300.688 82.230,299.671 81.600,299.220 81.600 C 298.769 81.600,298.400 81.395,298.400 81.144 C 298.400 80.590,297.197 79.630,296.481 79.613 C 296.195 79.606,295.545 79.150,295.035 78.600 C 294.525 78.050,293.724 77.600,293.254 77.600 C 292.784 77.600,292.399 77.375,292.397 77.100 C 292.394 76.584,290.639 75.600,289.720 75.600 C 289.434 75.600,289.245 75.399,289.300 75.153 C 289.355 74.907,289.058 74.649,288.640 74.580 C 288.222 74.510,287.772 74.304,287.640 74.123 C 287.508 73.941,286.725 73.438,285.900 73.005 C 285.075 72.572,284.400 72.079,284.400 71.909 C 284.400 71.739,283.950 71.600,283.400 71.600 C 282.850 71.600,282.400 71.423,282.400 71.208 C 282.400 70.992,281.950 70.702,281.400 70.564 C 280.850 70.426,280.400 70.153,280.400 69.957 C 280.400 69.760,279.969 69.600,279.443 69.600 C 278.916 69.600,278.382 69.330,278.255 69.000 C 278.129 68.670,277.659 68.400,277.213 68.400 C 276.766 68.400,276.400 68.220,276.400 68.000 C 276.400 67.780,275.969 67.600,275.443 67.600 C 274.916 67.600,274.382 67.330,274.255 67.000 C 274.129 66.670,273.670 66.400,273.236 66.400 C 272.802 66.400,272.336 66.220,272.200 66.000 C 272.064 65.780,271.434 65.600,270.800 65.600 C 270.166 65.600,269.543 65.431,269.416 65.225 C 269.034 64.608,266.745 63.600,265.726 63.600 C 265.203 63.600,264.671 63.330,264.545 63.000 C 264.418 62.670,263.884 62.400,263.357 62.400 C 262.831 62.400,262.400 62.220,262.400 62.000 C 262.400 61.780,261.680 61.600,260.800 61.600 C 259.807 61.600,259.238 61.426,259.300 61.142 C 259.355 60.890,258.772 60.607,258.000 60.512 C 257.230 60.417,256.540 60.173,256.467 59.969 C 256.393 59.766,255.738 59.600,255.009 59.600 C 254.202 59.600,253.596 59.366,253.455 59.000 C 253.311 58.623,252.699 58.400,251.813 58.400 C 251.036 58.400,250.400 58.220,250.400 58.000 C 250.400 57.780,249.519 57.600,248.443 57.600 C 247.072 57.600,246.417 57.420,246.255 57.000 C 246.104 56.606,245.480 56.400,244.436 56.400 C 243.562 56.400,242.736 56.220,242.600 56.000 C 242.464 55.780,241.483 55.600,240.419 55.600 C 239.183 55.600,238.412 55.409,238.282 55.070 C 238.152 54.730,237.241 54.507,235.739 54.447 C 234.453 54.396,233.229 54.184,233.020 53.977 C 232.811 53.770,231.528 53.600,230.169 53.600 C 228.574 53.600,227.538 53.407,227.247 53.056 C 226.944 52.692,225.708 52.487,223.498 52.434 C 221.684 52.391,220.029 52.186,219.820 51.978 C 219.310 51.471,182.690 51.471,182.180 51.978 M218.600 66.619 C 230.215 68.052,240.603 70.236,246.200 72.422 C 246.640 72.593,248.350 73.196,250.000 73.761 C 256.457 75.972,265.839 80.375,264.827 80.720 C 264.512 80.827,261.965 80.682,259.166 80.397 C 251.966 79.662,239.197 80.626,232.400 82.417 C 231.630 82.620,229.740 83.078,228.200 83.435 C 217.015 86.027,203.652 91.829,194.800 97.936 C 185.262 104.516,179.740 109.753,170.058 121.400 C 168.906 122.787,163.365 131.296,161.994 133.786 C 159.535 138.251,156.000 145.646,156.000 146.324 C 156.000 146.530,155.629 147.538,155.175 148.564 C 148.920 162.703,147.499 188.219,151.953 206.400 C 153.796 213.922,157.661 224.497,159.993 228.400 C 160.190 228.730,160.947 230.215,161.676 231.700 C 162.404 233.185,163.135 234.400,163.300 234.400 C 163.465 234.400,163.600 234.717,163.600 235.104 C 163.600 235.491,164.050 236.293,164.600 236.887 C 165.150 237.480,165.600 238.048,165.600 238.148 C 165.600 238.249,166.578 239.785,167.774 241.561 C 169.707 244.433,169.873 244.837,169.274 245.214 C 168.719 245.563,168.764 245.593,169.529 245.383 C 170.179 245.204,170.627 245.349,171.017 245.864 C 171.881 247.004,171.739 247.650,170.684 247.385 C 170.181 247.259,169.288 247.339,168.700 247.562 C 167.900 247.866,167.350 247.822,166.515 247.387 C 165.102 246.650,164.621 246.652,164.000 247.400 C 163.673 247.794,162.780 248.000,161.394 248.000 C 159.889 248.000,159.220 247.828,159.055 247.400 C 158.753 246.612,157.644 246.636,156.744 247.450 C 156.066 248.064,156.011 248.008,155.762 246.450 C 155.525 244.970,155.382 244.800,154.372 244.800 C 153.754 244.800,153.136 244.620,153.000 244.400 C 152.577 243.715,151.600 243.958,150.647 244.987 C 149.951 245.738,149.622 245.862,149.267 245.507 C 148.920 245.160,148.800 245.158,148.800 245.499 C 148.800 246.451,146.452 245.129,144.933 243.322 C 144.090 242.319,143.175 241.265,142.900 240.978 C 142.625 240.692,142.400 240.347,142.400 240.212 C 142.400 239.977,141.986 239.426,140.900 238.215 C 140.625 237.908,140.400 237.479,140.400 237.262 C 140.400 237.045,140.256 236.807,140.079 236.733 C 139.809 236.621,137.966 233.756,136.135 230.601 C 135.561 229.613,131.249 220.900,130.789 219.800 C 130.605 219.360,130.182 218.370,129.848 217.600 C 127.752 212.753,124.768 201.669,123.604 194.400 C 122.868 189.806,122.591 173.095,123.180 168.788 C 123.451 166.805,123.681 164.332,123.691 163.292 C 123.701 162.251,123.974 160.877,124.297 160.238 C 124.647 159.546,124.797 158.536,124.668 157.741 C 124.526 156.866,124.649 156.208,125.026 155.832 C 125.342 155.516,125.588 154.749,125.573 154.129 L 125.546 153.000 125.112 154.000 C 124.874 154.550,124.394 155.639,124.046 156.420 L 123.414 157.840 122.535 156.893 C 121.355 155.619,119.064 155.749,118.872 157.100 C 118.692 158.368,113.934 158.453,112.613 157.212 C 111.862 156.507,111.663 156.482,110.709 156.977 C 109.928 157.383,109.602 157.406,109.487 157.065 C 109.278 156.446,109.623 155.167,109.945 155.366 C 110.085 155.452,110.223 154.202,110.252 152.586 C 110.300 149.860,110.766 146.475,111.627 142.600 C 113.916 132.302,114.569 129.539,115.227 127.372 C 115.860 125.288,115.730 124.919,114.432 125.110 C 113.789 125.204,112.897 125.623,112.448 126.041 C 111.472 126.950,111.200 126.990,111.200 126.224 C 111.200 125.214,110.370 125.089,109.445 125.958 C 108.952 126.421,108.087 126.800,107.523 126.800 C 106.959 126.800,106.274 127.070,106.000 127.400 C 105.726 127.730,105.006 128.000,104.400 128.000 C 103.794 128.000,103.074 127.730,102.800 127.400 C 102.129 126.591,100.805 126.642,100.171 127.500 C 99.757 128.061,99.553 128.101,99.147 127.700 C 98.413 126.977,98.000 127.085,98.000 128.000 C 98.000 128.440,97.820 128.800,97.600 128.800 C 97.380 128.800,97.199 128.575,97.199 128.300 C 97.198 128.025,96.263 126.842,95.122 125.671 C 93.686 124.199,93.196 123.449,93.535 123.240 C 93.914 123.006,93.891 122.681,93.434 121.801 C 92.812 120.602,92.964 120.020,94.270 118.600 C 94.675 118.160,95.333 117.291,95.733 116.669 C 96.502 115.471,96.738 115.178,100.761 110.426 C 107.932 101.955,121.210 90.755,129.600 86.099 C 130.810 85.428,132.880 84.271,134.200 83.529 C 135.520 82.787,138.310 81.349,140.400 80.332 C 143.709 78.723,145.296 78.000,149.000 76.414 C 155.270 73.729,167.432 69.950,174.000 68.646 C 182.572 66.944,186.275 66.427,193.000 65.995 C 199.531 65.575,212.756 65.898,218.600 66.619 M102.800 128.400 C 102.800 128.620,102.440 128.800,102.000 128.800 C 101.560 128.800,101.200 128.620,101.200 128.400 C 101.200 128.180,101.560 128.000,102.000 128.000 C 102.440 128.000,102.800 128.180,102.800 128.400 M78.429 149.587 C 77.793 153.688,77.900 168.259,78.600 172.800 C 78.922 174.890,79.195 177.590,79.207 178.800 C 79.219 180.010,79.489 182.080,79.808 183.400 C 80.127 184.720,80.396 186.520,80.406 187.400 C 80.434 189.723,81.010 190.231,83.996 190.568 C 85.424 190.730,86.826 191.056,87.113 191.294 C 87.488 191.605,87.763 191.597,88.097 191.263 C 88.352 191.008,89.457 190.800,90.554 190.800 C 92.051 190.800,92.779 190.583,93.474 189.930 L 94.400 189.061 95.351 189.954 C 96.961 191.467,100.157 191.046,100.325 189.300 C 100.453 187.973,102.344 187.338,103.001 188.401 C 103.419 189.078,104.679 188.123,105.150 186.772 C 105.802 184.900,106.580 185.517,106.724 188.019 C 106.792 189.205,107.003 190.363,107.193 190.592 C 107.383 190.821,107.651 192.176,107.787 193.604 C 107.924 195.032,108.201 196.830,108.404 197.600 C 108.606 198.370,109.152 200.620,109.619 202.600 C 110.085 204.580,110.701 207.100,110.988 208.200 C 111.778 211.230,114.441 218.949,114.844 219.380 C 115.040 219.589,115.200 219.989,115.200 220.269 C 115.200 220.846,116.562 223.932,118.845 228.531 C 119.700 230.253,120.400 231.918,120.400 232.231 C 120.400 232.544,120.551 232.800,120.736 232.800 C 120.920 232.800,121.415 233.518,121.836 234.395 C 122.256 235.273,122.825 235.993,123.100 235.995 C 123.375 235.998,123.600 236.283,123.600 236.629 C 123.600 237.016,123.870 237.204,124.300 237.117 C 124.731 237.030,124.987 236.629,124.967 236.074 C 124.944 235.455,125.063 235.303,125.347 235.587 C 125.574 235.814,126.228 236.000,126.800 236.000 C 127.372 236.000,128.021 236.181,128.243 236.403 C 128.934 237.094,130.849 234.717,130.861 233.152 C 130.881 230.568,131.162 230.179,132.134 231.387 C 132.605 231.972,132.992 232.754,132.995 233.125 C 132.998 233.528,133.381 233.854,133.946 233.934 C 134.859 234.063,134.870 234.035,134.246 233.145 C 133.514 232.099,133.375 230.000,134.037 230.000 C 134.278 230.000,134.569 230.360,134.684 230.800 C 134.799 231.240,135.052 231.600,135.247 231.600 C 135.441 231.600,135.600 231.960,135.600 232.400 C 135.600 232.840,135.772 233.200,135.981 233.200 C 136.191 233.200,136.657 233.822,137.018 234.582 C 137.379 235.341,137.927 236.174,138.237 236.431 C 138.547 236.688,138.800 237.131,138.800 237.416 C 138.800 237.700,138.951 237.993,139.135 238.067 C 139.320 238.140,140.670 239.864,142.136 241.898 C 145.104 246.016,145.292 246.248,149.787 251.369 C 157.619 260.291,170.412 270.999,179.000 275.820 C 184.406 278.855,192.674 282.827,196.800 284.372 C 199.330 285.319,201.760 286.232,202.200 286.400 C 202.640 286.569,204.080 287.023,205.400 287.410 C 206.720 287.796,208.250 288.255,208.800 288.429 C 209.350 288.603,211.060 289.032,212.600 289.383 C 214.140 289.733,216.120 290.184,217.000 290.384 C 217.880 290.584,219.950 290.945,221.600 291.187 C 232.706 292.811,244.000 293.245,248.885 292.236 C 250.580 291.886,252.928 291.600,254.103 291.600 C 255.278 291.600,256.411 291.436,256.620 291.235 C 256.829 291.035,257.810 290.700,258.800 290.492 C 260.520 290.131,260.555 290.096,259.600 289.700 L 258.600 289.286 259.700 289.000 C 260.557 288.777,260.800 288.475,260.800 287.637 C 260.800 287.044,261.016 286.344,261.280 286.080 C 261.653 285.707,261.653 285.600,261.280 285.600 C 259.333 285.600,261.575 283.687,264.060 283.229 C 290.056 278.432,305.758 270.331,319.551 254.601 C 322.210 251.569,322.963 251.135,322.599 252.847 C 322.441 253.591,322.061 254.484,321.755 254.831 C 321.450 255.179,321.200 255.661,321.200 255.903 C 321.200 256.395,317.276 264.085,316.864 264.399 C 316.719 264.509,316.257 265.275,315.837 266.100 C 315.417 266.925,314.922 267.600,314.737 267.600 C 314.552 267.600,314.400 267.792,314.400 268.027 C 314.400 268.261,313.950 269.043,313.400 269.764 C 312.850 270.486,312.400 271.284,312.400 271.538 C 312.400 271.792,312.235 272.000,312.034 272.000 C 311.833 272.000,311.104 272.918,310.413 274.040 C 309.723 275.162,308.718 276.555,308.179 277.136 C 307.641 277.717,307.200 278.327,307.200 278.493 C 307.200 278.658,306.851 279.200,306.424 279.697 C 305.998 280.194,305.294 281.014,304.861 281.519 C 304.427 282.025,303.473 283.195,302.741 284.119 C 301.417 285.790,289.257 298.048,287.775 299.206 C 287.349 299.539,286.190 300.439,285.200 301.206 C 284.210 301.972,283.310 302.695,283.200 302.810 C 283.090 302.926,282.190 303.643,281.200 304.405 C 280.210 305.166,279.172 306.006,278.893 306.272 C 278.614 306.539,277.669 307.159,276.793 307.652 C 275.917 308.144,275.200 308.694,275.200 308.874 C 275.200 309.053,275.047 309.200,274.859 309.200 C 274.672 309.200,273.277 310.024,271.759 311.032 C 270.242 312.040,268.640 313.033,268.200 313.239 C 267.760 313.445,266.500 314.150,265.400 314.806 C 263.372 316.016,256.724 319.334,253.800 320.596 C 251.093 321.764,249.431 322.502,248.705 322.859 C 248.323 323.046,247.693 323.206,247.305 323.213 C 246.917 323.220,246.251 323.490,245.824 323.813 C 245.396 324.136,244.719 324.400,244.318 324.400 C 243.917 324.400,243.277 324.556,242.895 324.746 C 241.602 325.391,239.406 326.099,238.096 326.294 C 237.379 326.401,236.694 326.649,236.573 326.844 C 236.452 327.040,235.935 327.200,235.425 327.200 C 234.915 327.200,233.851 327.470,233.062 327.800 C 232.272 328.130,231.091 328.400,230.436 328.400 C 229.782 328.400,229.136 328.580,229.000 328.800 C 228.864 329.020,228.145 329.200,227.402 329.200 C 226.660 329.200,225.545 329.396,224.926 329.635 C 223.852 330.051,222.763 330.216,214.000 331.288 C 208.961 331.905,190.539 331.909,185.000 331.294 C 177.770 330.492,175.061 330.087,173.874 329.632 C 173.255 329.394,172.140 329.200,171.398 329.200 C 170.655 329.200,169.936 329.020,169.800 328.800 C 169.664 328.580,168.945 328.400,168.202 328.400 C 167.460 328.400,166.345 328.197,165.726 327.949 C 165.107 327.701,163.970 327.353,163.200 327.175 C 160.088 326.458,158.338 325.972,157.686 325.644 C 157.309 325.454,156.280 325.085,155.400 324.825 C 153.964 324.400,152.928 324.022,149.600 322.710 C 148.581 322.308,147.452 321.830,144.600 320.592 C 141.583 319.282,136.599 316.792,133.800 315.195 C 132.260 314.316,130.685 313.487,130.300 313.352 C 129.915 313.217,129.600 312.969,129.600 312.800 C 129.600 312.631,129.285 312.385,128.900 312.252 C 122.399 310.014,101.001 290.980,93.813 281.041 C 93.160 280.139,92.522 279.310,92.395 279.200 C 92.268 279.090,91.138 277.560,89.885 275.800 C 88.632 274.040,87.461 272.420,87.283 272.200 C 87.105 271.980,86.831 271.530,86.675 271.200 C 86.518 270.870,85.401 268.980,84.193 267.000 C 81.639 262.814,77.452 254.437,75.196 249.000 C 74.894 248.273,73.957 245.673,72.240 240.800 C 65.138 220.641,64.016 190.503,69.613 170.200 C 70.537 166.849,71.344 164.117,71.622 163.400 C 71.793 162.960,72.254 161.610,72.647 160.400 C 73.040 159.190,73.505 158.029,73.681 157.820 C 73.856 157.611,74.001 157.161,74.002 156.820 C 74.004 156.479,74.274 155.684,74.602 155.054 C 74.931 154.424,75.200 153.707,75.200 153.460 C 75.200 153.213,75.634 152.109,76.165 151.006 C 76.696 149.903,77.461 148.142,77.865 147.092 C 78.795 144.678,79.030 145.716,78.429 149.587 " stroke="none" fill="#cbbcee" fill-rule="evenodd"></path><path id="path1" d="M70.096 223.595 C 69.501 224.547,69.438 227.053,70.000 227.400 C 70.220 227.536,70.400 228.449,70.400 229.429 C 70.400 230.409,70.559 231.523,70.753 231.905 C 71.099 232.586,71.844 235.216,72.254 237.200 C 72.367 237.750,72.613 238.560,72.800 239.000 C 72.987 239.440,73.229 240.250,73.338 240.800 C 73.664 242.446,75.250 246.866,76.258 248.937 C 76.776 250.002,77.200 251.032,77.200 251.226 C 77.200 251.624,78.673 254.932,80.573 258.800 C 88.933 275.825,104.345 294.291,118.800 304.604 C 120.010 305.467,121.090 306.275,121.200 306.400 C 121.988 307.292,128.892 311.728,133.600 314.367 C 137.245 316.411,148.044 321.600,148.651 321.600 C 148.777 321.600,149.446 321.856,150.140 322.168 C 152.227 323.109,161.095 326.000,161.895 326.000 C 162.305 326.000,162.811 326.146,163.020 326.324 C 163.229 326.503,164.840 326.967,166.600 327.356 C 168.360 327.745,170.430 328.219,171.200 328.408 C 171.970 328.598,174.310 329.042,176.400 329.395 C 178.490 329.748,181.272 330.224,182.583 330.451 C 191.058 331.924,213.875 331.139,224.400 329.012 C 226.270 328.635,228.610 328.169,229.600 327.978 C 230.590 327.787,232.390 327.342,233.600 326.988 C 234.810 326.634,236.340 326.194,237.000 326.011 C 239.529 325.308,247.846 322.435,249.800 321.590 C 250.240 321.399,251.500 320.855,252.600 320.381 C 262.052 316.303,273.459 309.628,280.392 304.117 C 280.726 303.851,281.720 303.070,282.599 302.382 C 291.276 295.589,299.914 286.672,307.200 276.988 C 308.850 274.794,310.335 272.940,310.500 272.867 C 310.665 272.793,310.800 272.576,310.800 272.384 C 310.800 272.082,313.369 268.142,314.311 267.000 C 314.492 266.780,314.768 266.330,314.924 266.000 C 315.079 265.670,315.546 264.843,315.961 264.162 C 317.082 262.321,320.800 255.202,320.800 254.897 C 320.800 254.752,318.595 256.887,315.900 259.643 C 310.965 264.688,309.698 265.855,306.400 268.385 C 305.410 269.145,303.551 270.722,302.269 271.891 C 300.987 273.059,299.007 274.638,297.869 275.401 C 296.731 276.163,294.684 277.565,293.321 278.516 C 291.957 279.467,289.797 280.775,288.521 281.423 C 287.244 282.070,286.110 282.690,286.000 282.800 C 285.612 283.188,281.381 285.200,280.953 285.200 C 280.714 285.200,279.673 285.650,278.638 286.200 C 277.604 286.750,276.452 287.206,276.079 287.213 C 275.705 287.220,275.051 287.490,274.624 287.813 C 274.196 288.136,273.442 288.400,272.947 288.400 C 272.452 288.400,271.936 288.580,271.800 288.800 C 271.664 289.020,271.068 289.206,270.476 289.213 C 269.884 289.220,269.051 289.490,268.624 289.813 C 268.196 290.136,267.262 290.400,266.547 290.400 C 265.832 290.400,265.136 290.580,265.000 290.800 C 264.864 291.020,264.178 291.206,263.476 291.214 C 262.774 291.222,261.750 291.486,261.200 291.800 C 260.650 292.114,259.381 292.378,258.380 292.386 C 257.379 292.394,256.355 292.605,256.105 292.855 C 255.855 293.105,253.704 293.438,251.325 293.594 C 248.946 293.751,247.390 293.906,247.867 293.940 C 249.489 294.053,250.000 294.461,250.000 295.643 C 250.000 296.829,249.965 296.847,247.381 296.994 C 246.931 297.020,246.168 297.317,245.686 297.655 C 244.983 298.147,244.316 298.201,242.321 297.929 C 239.593 297.556,238.977 297.895,237.625 300.514 L 237.050 301.628 229.225 301.440 C 221.714 301.259,213.529 300.696,211.000 300.187 C 210.340 300.055,208.270 299.675,206.400 299.344 C 202.010 298.566,196.732 297.345,194.200 296.520 C 184.371 293.318,179.681 291.428,173.000 287.975 C 167.465 285.115,161.447 281.593,160.800 280.834 C 160.543 280.533,159.173 279.672,158.400 279.327 C 158.070 279.179,157.710 278.954,157.600 278.827 C 157.490 278.700,156.721 278.089,155.891 277.470 C 155.061 276.852,153.944 275.908,153.409 275.373 C 152.874 274.838,152.248 274.400,152.018 274.400 C 151.788 274.400,151.600 274.261,151.600 274.091 C 151.600 273.921,150.981 273.448,150.223 273.041 C 149.466 272.633,148.753 272.055,148.639 271.756 C 148.524 271.458,148.152 271.320,147.811 271.451 C 147.412 271.604,147.240 271.495,147.330 271.145 C 147.406 270.845,147.393 270.735,147.301 270.900 C 146.997 271.444,146.174 271.214,144.800 270.200 C 142.546 268.537,139.683 269.603,138.679 272.478 C 138.493 273.009,138.132 273.106,137.013 272.925 C 135.449 272.671,132.836 274.736,132.768 276.280 C 132.747 276.758,132.602 276.630,132.335 275.900 C 132.114 275.295,131.764 274.800,131.557 274.800 C 131.350 274.800,131.007 274.344,130.795 273.786 C 130.228 272.295,122.285 272.399,122.072 273.900 C 122.000 274.406,121.664 274.800,121.304 274.800 C 120.951 274.800,120.358 275.076,119.984 275.414 C 119.364 275.976,119.284 275.933,119.051 274.914 C 118.911 274.301,118.261 273.384,117.607 272.877 L 116.417 271.953 115.149 273.397 C 114.232 274.442,113.760 274.720,113.444 274.404 C 113.128 274.088,113.172 273.853,113.603 273.557 C 114.072 273.236,114.018 273.199,113.353 273.384 C 112.681 273.571,112.401 273.368,112.001 272.402 C 111.723 271.732,111.015 270.779,110.427 270.284 C 109.839 269.789,108.557 268.218,107.579 266.792 C 106.600 265.366,105.710 264.110,105.600 264.000 C 105.490 263.890,105.204 263.440,104.963 263.000 C 104.121 261.456,102.065 257.776,100.678 255.331 C 98.304 251.143,93.964 242.013,92.346 237.800 C 91.924 236.700,91.424 235.440,91.237 235.000 C 90.894 234.197,89.762 231.294,89.208 229.800 C 89.044 229.360,88.616 228.319,88.255 227.486 C 87.895 226.654,87.600 225.640,87.600 225.233 C 87.600 224.422,86.128 223.815,85.891 224.528 C 85.802 224.794,85.281 224.607,84.581 224.057 C 83.914 223.532,83.358 223.325,83.276 223.571 C 83.034 224.298,72.614 224.139,72.000 223.400 C 71.321 222.582,70.688 222.647,70.096 223.595 M83.300 225.172 C 83.465 225.187,83.600 225.380,83.600 225.600 C 83.600 226.103,78.531 226.135,78.221 225.634 C 77.784 224.927,79.231 224.795,83.300 225.172 M127.475 271.058 C 126.953 271.580,127.202 272.000,128.033 272.000 C 128.499 272.000,128.797 271.790,128.708 271.525 C 128.513 270.940,127.846 270.688,127.475 271.058 M116.347 276.099 C 115.921 276.894,115.916 276.894,115.093 276.071 C 114.396 275.374,114.349 275.144,114.790 274.612 C 115.598 273.639,116.965 274.945,116.347 276.099 M232.573 293.959 C 233.295 294.242,235.200 294.093,235.200 293.753 C 235.200 293.669,234.435 293.613,233.500 293.628 C 232.297 293.648,232.026 293.745,232.573 293.959 " stroke="none" fill="#7258ba" fill-rule="evenodd"></path><path id="path2" d="M193.000 65.995 C 181.529 66.732,170.562 68.907,159.200 72.700 C 156.945 73.452,150.070 75.956,149.000 76.414 C 145.296 78.000,143.709 78.723,140.400 80.332 C 138.310 81.349,135.520 82.787,134.200 83.529 C 132.880 84.271,130.810 85.428,129.600 86.099 C 121.210 90.755,107.932 101.955,100.761 110.426 C 96.738 115.178,96.502 115.471,95.733 116.669 C 95.333 117.291,94.675 118.160,94.270 118.600 C 92.964 120.020,92.812 120.602,93.434 121.801 C 93.891 122.681,93.914 123.006,93.535 123.240 C 93.196 123.449,93.686 124.199,95.122 125.671 C 96.263 126.842,97.198 128.025,97.199 128.300 C 97.199 128.575,97.380 128.800,97.600 128.800 C 97.820 128.800,98.000 128.440,98.000 128.000 C 98.000 127.085,98.413 126.977,99.147 127.700 C 99.553 128.101,99.757 128.061,100.171 127.500 C 100.805 126.642,102.129 126.591,102.800 127.400 C 103.074 127.730,103.794 128.000,104.400 128.000 C 105.006 128.000,105.726 127.730,106.000 127.400 C 106.274 127.070,106.959 126.800,107.523 126.800 C 108.087 126.800,108.952 126.421,109.445 125.958 C 110.370 125.089,111.200 125.214,111.200 126.224 C 111.200 126.990,111.472 126.950,112.448 126.041 C 112.897 125.623,113.789 125.204,114.432 125.110 C 115.730 124.919,115.860 125.288,115.227 127.372 C 114.569 129.539,113.916 132.302,111.627 142.600 C 110.766 146.475,110.300 149.860,110.252 152.586 C 110.223 154.202,110.085 155.452,109.945 155.366 C 109.623 155.167,109.278 156.446,109.487 157.065 C 109.602 157.406,109.928 157.383,110.709 156.977 C 111.663 156.482,111.862 156.507,112.613 157.212 C 113.934 158.453,118.692 158.368,118.872 157.100 C 119.064 155.749,121.355 155.619,122.535 156.893 L 123.414 157.840 124.046 156.420 C 124.394 155.639,124.874 154.550,125.112 154.000 L 125.546 153.000 125.573 154.129 C 125.588 154.749,125.342 155.516,125.026 155.832 C 124.649 156.208,124.526 156.866,124.668 157.741 C 124.797 158.536,124.647 159.546,124.297 160.238 C 123.974 160.877,123.701 162.251,123.691 163.292 C 123.681 164.332,123.451 166.805,123.180 168.788 C 122.591 173.095,122.868 189.806,123.604 194.400 C 124.768 201.669,127.752 212.753,129.848 217.600 C 130.182 218.370,130.605 219.360,130.789 219.800 C 131.249 220.900,135.561 229.613,136.135 230.601 C 137.966 233.756,139.809 236.621,140.079 236.733 C 140.256 236.807,140.400 237.045,140.400 237.262 C 140.400 237.479,140.625 237.908,140.900 238.215 C 141.986 239.426,142.400 239.977,142.400 240.212 C 142.400 240.347,142.625 240.692,142.900 240.978 C 143.175 241.265,144.090 242.319,144.933 243.322 C 146.452 245.129,148.800 246.451,148.800 245.499 C 148.800 245.158,148.920 245.160,149.267 245.507 C 149.622 245.862,149.951 245.738,150.647 244.987 C 151.600 243.958,152.577 243.715,153.000 244.400 C 153.136 244.620,153.754 244.800,154.372 244.800 C 155.382 244.800,155.525 244.970,155.762 246.450 C 156.011 248.008,156.066 248.064,156.744 247.450 C 157.644 246.636,158.753 246.612,159.055 247.400 C 159.220 247.828,159.889 248.000,161.394 248.000 C 162.780 248.000,163.673 247.794,164.000 247.400 C 164.621 246.652,165.102 246.650,166.515 247.387 C 167.350 247.822,167.900 247.866,168.700 247.562 C 169.288 247.339,170.181 247.259,170.684 247.385 C 171.739 247.650,171.881 247.004,171.017 245.864 C 170.627 245.349,170.179 245.204,169.529 245.383 C 168.764 245.593,168.719 245.563,169.274 245.214 C 169.873 244.837,169.707 244.433,167.774 241.561 C 166.578 239.785,165.600 238.249,165.600 238.148 C 165.600 238.048,165.150 237.480,164.600 236.887 C 164.050 236.293,163.600 235.491,163.600 235.104 C 163.600 234.717,163.465 234.400,163.300 234.400 C 163.135 234.400,162.404 233.185,161.676 231.700 C 160.947 230.215,160.190 228.730,159.993 228.400 C 148.243 208.738,145.880 169.577,155.175 148.564 C 155.629 147.538,156.000 146.530,156.000 146.324 C 156.000 145.646,159.535 138.251,161.994 133.786 C 163.365 131.296,168.906 122.787,170.058 121.400 C 179.740 109.753,185.262 104.516,194.800 97.936 C 203.652 91.829,217.015 86.027,228.200 83.435 C 229.740 83.078,231.630 82.620,232.400 82.417 C 239.197 80.626,251.966 79.662,259.166 80.397 C 261.965 80.682,264.512 80.827,264.827 80.720 C 265.839 80.375,256.457 75.972,250.000 73.761 C 248.350 73.196,246.640 72.593,246.200 72.422 C 234.424 67.824,210.160 64.892,193.000 65.995 M101.200 128.400 C 101.200 128.620,101.560 128.800,102.000 128.800 C 102.440 128.800,102.800 128.620,102.800 128.400 C 102.800 128.180,102.440 128.000,102.000 128.000 C 101.560 128.000,101.200 128.180,101.200 128.400 M86.400 302.714 C 86.400 303.108,88.024 304.510,88.235 304.298 C 88.323 304.211,87.945 303.749,87.397 303.272 C 86.849 302.795,86.400 302.544,86.400 302.714 M314.408 303.452 C 313.863 303.973,313.556 304.400,313.725 304.400 C 314.142 304.400,315.786 302.848,315.571 302.656 C 315.477 302.573,314.954 302.931,314.408 303.452 " stroke="none" fill="#f9f0f9" fill-rule="evenodd"></path><path id="path3" d="M75.108 185.910 C 74.860 186.856,72.706 187.219,72.200 186.400 C 72.064 186.180,71.533 186.000,71.019 186.000 C 69.902 186.000,69.341 187.070,70.322 187.329 C 70.842 187.465,70.804 187.518,70.162 187.554 C 69.701 187.579,68.981 187.221,68.562 186.757 C 67.804 185.919,67.797 185.934,67.261 189.657 C 65.052 205.000,67.597 226.187,73.777 243.889 C 76.756 252.422,80.444 260.132,86.096 269.643 C 86.968 271.112,93.573 280.290,94.850 281.809 C 97.711 285.212,97.661 284.889,94.723 280.997 C 92.895 278.575,90.934 275.965,90.364 275.197 C 89.034 273.405,84.784 266.643,83.128 263.684 C 80.914 259.729,77.200 251.923,77.200 251.226 C 77.200 251.032,76.776 250.002,76.258 248.937 C 75.250 246.866,73.664 242.446,73.338 240.800 C 73.229 240.250,72.987 239.440,72.800 239.000 C 72.613 238.560,72.367 237.750,72.254 237.200 C 71.844 235.216,71.099 232.586,70.753 231.905 C 70.559 231.523,70.400 230.409,70.400 229.429 C 70.400 228.449,70.220 227.536,70.000 227.400 C 69.423 227.043,69.532 224.323,70.157 223.500 C 70.808 222.642,71.347 222.613,72.000 223.400 C 72.614 224.139,83.034 224.298,83.276 223.571 C 83.358 223.325,83.914 223.532,84.581 224.057 C 85.281 224.607,85.802 224.794,85.891 224.528 C 86.128 223.815,87.600 224.422,87.600 225.233 C 87.600 225.640,87.895 226.654,88.255 227.486 C 88.616 228.319,89.044 229.360,89.208 229.800 C 89.762 231.294,90.894 234.197,91.237 235.000 C 91.424 235.440,91.924 236.700,92.346 237.800 C 93.964 242.013,98.304 251.143,100.678 255.331 C 102.065 257.776,104.121 261.456,104.963 263.000 C 105.204 263.440,105.490 263.890,105.600 264.000 C 105.710 264.110,106.600 265.366,107.579 266.792 C 108.557 268.218,109.839 269.789,110.427 270.284 C 111.015 270.779,111.723 271.732,112.001 272.402 C 112.401 273.368,112.681 273.571,113.353 273.384 C 114.018 273.199,114.072 273.236,113.603 273.557 C 113.172 273.853,113.128 274.088,113.444 274.404 C 113.760 274.720,114.232 274.442,115.149 273.397 L 116.417 271.953 117.607 272.877 C 118.261 273.384,118.911 274.301,119.051 274.914 C 119.284 275.933,119.364 275.976,119.984 275.414 C 120.358 275.076,120.951 274.800,121.304 274.800 C 121.664 274.800,122.000 274.406,122.072 273.900 C 122.285 272.399,130.228 272.295,130.795 273.786 C 131.007 274.344,131.350 274.800,131.557 274.800 C 131.764 274.800,132.114 275.295,132.335 275.900 C 132.602 276.630,132.747 276.758,132.768 276.280 C 132.836 274.736,135.449 272.671,137.013 272.925 C 138.132 273.106,138.493 273.009,138.679 272.478 C 139.689 269.585,142.452 268.573,144.832 270.222 C 145.644 270.785,146.751 271.292,147.293 271.350 C 147.834 271.407,148.697 271.845,149.209 272.323 C 149.722 272.800,150.469 273.295,150.871 273.422 C 151.272 273.550,151.600 273.822,151.600 274.027 C 151.600 274.232,151.788 274.400,152.018 274.400 C 152.248 274.400,152.874 274.838,153.409 275.373 C 153.944 275.908,155.061 276.852,155.891 277.470 C 156.721 278.089,157.490 278.686,157.600 278.798 C 157.893 279.094,159.307 279.964,160.000 280.273 C 160.330 280.421,160.690 280.660,160.800 280.805 C 161.355 281.537,167.285 285.022,173.000 287.975 C 179.681 291.428,184.371 293.318,194.200 296.520 C 196.732 297.345,202.010 298.566,206.400 299.344 C 208.270 299.675,210.340 300.055,211.000 300.187 C 213.529 300.696,221.714 301.259,229.225 301.440 L 237.050 301.628 237.625 300.514 C 238.977 297.895,239.593 297.556,242.321 297.929 C 244.316 298.201,244.983 298.147,245.686 297.655 C 246.168 297.317,246.931 297.020,247.381 296.994 C 249.965 296.847,250.000 296.829,250.000 295.643 C 250.000 294.461,249.489 294.053,247.867 293.940 C 247.390 293.906,248.946 293.751,251.325 293.594 C 253.704 293.438,255.855 293.105,256.105 292.855 C 256.355 292.605,257.379 292.394,258.380 292.386 C 259.381 292.378,260.650 292.114,261.200 291.800 C 261.750 291.486,262.774 291.222,263.476 291.214 C 264.178 291.206,264.864 291.020,265.000 290.800 C 265.136 290.580,265.832 290.400,266.547 290.400 C 267.262 290.400,268.196 290.136,268.624 289.813 C 269.051 289.490,269.884 289.220,270.476 289.213 C 271.068 289.206,271.664 289.020,271.800 288.800 C 271.936 288.580,272.452 288.400,272.947 288.400 C 273.442 288.400,274.196 288.136,274.624 287.813 C 275.051 287.490,275.705 287.220,276.079 287.213 C 276.452 287.206,277.604 286.750,278.638 286.200 C 279.673 285.650,280.714 285.200,280.953 285.200 C 281.381 285.200,285.612 283.188,286.000 282.800 C 286.110 282.690,287.244 282.070,288.521 281.423 C 289.797 280.775,291.957 279.467,293.321 278.516 C 294.684 277.565,296.731 276.163,297.869 275.401 C 299.007 274.638,300.987 273.059,302.269 271.891 C 303.551 270.722,305.410 269.145,306.400 268.385 C 309.698 265.855,310.965 264.688,315.900 259.643 C 318.595 256.887,320.800 254.752,320.800 254.897 C 320.800 255.243,316.819 262.849,316.293 263.510 C 316.069 263.790,315.984 264.117,316.104 264.237 C 316.286 264.419,320.000 258.239,320.000 257.755 C 320.000 257.668,320.451 256.662,321.002 255.520 C 322.329 252.768,321.760 252.366,319.861 254.713 C 314.885 260.868,307.935 266.850,300.600 271.293 C 298.840 272.360,297.130 273.406,296.800 273.619 C 296.470 273.831,295.930 274.126,295.600 274.273 C 295.270 274.421,294.329 274.960,293.508 275.471 C 292.687 275.982,291.744 276.400,291.413 276.400 C 290.491 276.400,289.200 277.679,289.200 278.591 C 289.200 279.348,284.260 282.800,283.178 282.800 C 282.970 282.800,282.800 282.980,282.800 283.200 C 282.800 283.420,282.631 283.600,282.424 283.600 C 282.217 283.600,280.496 284.320,278.600 285.200 C 276.704 286.080,274.929 286.800,274.656 286.800 C 274.383 286.800,273.989 286.956,273.780 287.147 C 272.768 288.072,259.980 291.405,253.600 292.407 C 248.996 293.131,236.045 293.373,231.200 292.827 C 219.593 291.519,212.131 290.265,211.360 289.494 C 211.199 289.332,210.632 289.200,210.101 289.200 C 209.569 289.200,207.754 288.746,206.067 288.192 C 204.380 287.638,202.100 286.892,201.000 286.536 C 199.900 286.180,198.829 285.733,198.620 285.544 C 198.411 285.355,197.914 285.200,197.515 285.200 C 197.116 285.200,196.477 285.029,196.095 284.819 C 195.713 284.610,194.770 284.182,194.000 283.867 C 193.230 283.553,191.610 282.853,190.400 282.311 C 189.190 281.769,187.435 280.993,186.500 280.586 C 185.565 280.179,184.800 279.701,184.800 279.523 C 184.800 279.345,184.526 279.200,184.192 279.200 C 183.858 279.200,182.871 278.750,182.000 278.200 C 181.129 277.650,180.232 277.200,180.008 277.200 C 179.784 277.200,179.600 277.020,179.600 276.800 C 179.600 276.580,179.345 276.400,179.032 276.400 C 178.319 276.400,176.006 275.102,176.003 274.700 C 176.001 274.535,175.659 274.400,175.243 274.400 C 174.826 274.400,174.382 274.130,174.255 273.800 C 174.129 273.470,173.749 273.200,173.413 273.200 C 173.076 273.200,172.800 273.020,172.800 272.800 C 172.800 272.580,172.530 272.400,172.200 272.400 C 171.870 272.400,171.597 272.175,171.594 271.900 C 171.589 271.543,171.487 271.559,171.234 271.958 C 170.741 272.737,169.600 272.200,169.600 271.189 C 169.600 270.729,169.437 270.454,169.238 270.577 C 169.038 270.700,168.969 271.158,169.083 271.596 C 169.308 272.455,169.071 272.593,166.680 272.991 C 165.432 273.198,165.202 273.376,165.395 273.985 C 165.569 274.532,165.313 274.885,164.415 275.332 C 163.279 275.899,163.200 275.890,163.200 275.193 C 163.200 274.387,162.667 273.866,162.259 274.274 C 162.120 274.413,162.211 274.772,162.460 275.073 C 163.407 276.214,158.979 276.777,157.289 275.731 C 156.787 275.420,156.224 275.261,156.037 275.377 C 155.850 275.493,155.270 275.167,154.748 274.653 C 154.227 274.139,153.602 273.647,153.361 273.559 C 151.819 273.001,139.944 261.627,136.400 257.315 C 129.208 248.564,123.234 239.702,119.334 232.000 C 118.276 229.910,117.317 228.110,117.205 228.000 C 116.669 227.475,115.596 225.040,115.560 224.268 C 115.524 223.482,115.494 223.494,115.244 224.400 C 115.073 225.019,114.516 225.556,113.784 225.808 C 111.153 226.716,110.657 227.179,111.415 228.017 C 112.157 228.836,111.957 230.000,111.075 230.000 C 110.772 230.000,110.198 229.640,109.800 229.200 C 108.794 228.088,108.076 228.202,107.927 229.497 C 107.765 230.900,106.517 231.234,106.331 229.923 C 106.162 228.734,100.924 228.286,100.013 229.384 C 99.732 229.723,99.015 230.000,98.421 230.000 C 97.785 230.000,96.953 230.412,96.400 231.000 C 95.883 231.550,95.216 232.000,94.918 232.000 C 94.175 232.000,93.791 230.849,94.347 230.293 C 94.596 230.044,94.800 229.681,94.800 229.487 C 94.800 229.023,93.809 229.357,93.771 229.833 C 93.756 230.035,93.516 230.664,93.239 231.230 L 92.735 232.260 91.568 231.170 C 90.925 230.570,90.400 229.864,90.400 229.601 C 90.400 229.338,90.148 228.646,89.839 228.062 C 89.530 227.478,89.002 226.100,88.664 225.000 C 87.866 222.399,87.163 220.350,86.811 219.600 C 86.554 219.054,86.113 217.626,84.586 212.400 C 84.297 211.410,83.755 209.250,83.380 207.600 C 83.006 205.950,82.542 204.287,82.350 203.905 C 82.157 203.523,82.000 202.680,82.000 202.031 C 82.000 201.383,81.803 200.345,81.561 199.726 C 81.320 199.107,80.974 197.700,80.793 196.600 C 80.611 195.500,80.273 193.880,80.041 193.000 C 79.809 192.120,79.615 190.635,79.610 189.700 C 79.604 188.765,79.420 188.000,79.200 188.000 C 78.980 188.000,78.800 187.370,78.800 186.600 C 78.800 185.252,78.315 184.767,77.800 185.600 C 77.450 186.166,75.699 186.098,75.503 185.510 C 75.414 185.241,75.236 185.421,75.108 185.910 M112.077 224.430 C 112.156 224.667,112.391 224.860,112.600 224.860 C 112.809 224.860,113.044 224.667,113.123 224.430 C 113.202 224.194,112.967 224.000,112.600 224.000 C 112.233 224.000,111.998 224.194,112.077 224.430 M78.498 225.065 C 77.348 225.530,78.618 226.000,81.024 226.000 C 83.013 226.000,84.886 225.319,83.300 225.172 C 80.851 224.945,78.901 224.902,78.498 225.065 M315.280 265.280 C 315.016 265.544,314.800 265.979,314.800 266.247 C 314.800 266.514,314.665 266.793,314.500 266.867 C 314.095 267.047,310.800 271.971,310.800 272.396 C 310.800 272.582,310.665 272.793,310.500 272.867 C 310.335 272.940,308.850 274.794,307.200 276.988 C 299.914 286.672,291.276 295.589,282.599 302.382 C 281.720 303.070,280.730 303.852,280.400 304.118 C 280.070 304.384,278.855 305.292,277.700 306.135 C 276.545 306.978,275.600 307.758,275.600 307.868 C 275.600 308.243,280.877 304.297,286.000 300.092 C 292.229 294.978,301.862 284.930,306.220 279.000 C 306.866 278.120,307.487 277.310,307.600 277.200 C 308.889 275.940,316.306 264.800,315.856 264.800 C 315.803 264.800,315.544 265.016,315.280 265.280 M128.708 271.525 C 128.797 271.790,128.499 272.000,128.033 272.000 C 127.202 272.000,126.953 271.580,127.475 271.058 C 127.846 270.688,128.513 270.940,128.708 271.525 M114.790 274.612 C 114.349 275.144,114.396 275.374,115.093 276.071 C 115.916 276.894,115.921 276.894,116.347 276.099 C 116.965 274.945,115.598 273.639,114.790 274.612 M99.379 287.241 C 104.151 292.555,116.400 303.948,116.400 303.072 C 116.400 302.972,115.185 301.900,113.700 300.690 C 110.849 298.366,104.405 292.144,100.892 288.323 C 99.741 287.071,98.574 285.919,98.299 285.764 C 98.025 285.609,98.511 286.274,99.379 287.241 M235.200 293.753 C 235.200 294.093,233.295 294.242,232.573 293.959 C 232.026 293.745,232.297 293.648,233.500 293.628 C 234.435 293.613,235.200 293.669,235.200 293.753 M116.817 303.466 C 116.850 304.106,130.225 313.213,131.103 313.193 C 131.266 313.190,130.770 312.795,130.000 312.316 C 126.727 310.280,121.981 307.126,121.510 306.673 C 120.410 305.617,116.801 303.151,116.817 303.466 M270.632 310.815 C 265.879 313.849,264.638 314.806,267.800 313.000 C 272.114 310.536,275.983 307.893,275.100 308.014 C 275.045 308.021,273.034 309.282,270.632 310.815 M132.800 314.160 C 132.800 314.435,135.691 316.042,135.867 315.866 C 135.959 315.774,135.386 315.317,134.594 314.850 C 133.149 313.997,132.800 313.863,132.800 314.160 M263.681 314.881 C 262.956 315.329,262.438 315.771,262.531 315.864 C 262.708 316.042,265.600 314.436,265.600 314.160 C 265.600 313.846,264.981 314.078,263.681 314.881 M136.400 316.165 C 136.400 316.292,138.335 317.311,140.700 318.429 C 143.065 319.546,145.313 320.627,145.695 320.831 C 146.077 321.034,146.617 321.196,146.895 321.191 C 147.173 321.186,146.860 320.926,146.200 320.614 C 145.540 320.302,143.200 319.182,141.000 318.126 C 138.800 317.069,136.865 316.143,136.700 316.069 C 136.535 315.994,136.400 316.037,136.400 316.165 M256.400 318.633 C 255.842 318.943,255.665 319.185,256.000 319.181 C 256.330 319.178,256.949 318.910,257.376 318.587 C 258.339 317.859,257.745 317.887,256.400 318.633 M147.809 321.535 C 148.024 321.730,148.826 322.100,149.591 322.356 C 150.356 322.612,150.806 322.661,150.591 322.465 C 150.376 322.270,149.574 321.900,148.809 321.644 C 148.044 321.388,147.594 321.339,147.809 321.535 M247.000 322.614 C 245.385 323.354,246.351 323.355,248.054 322.616 C 248.794 322.294,249.130 322.039,248.800 322.048 C 248.470 322.057,247.660 322.312,247.000 322.614 M152.346 323.416 C 153.086 323.737,153.896 323.985,154.146 323.968 C 154.777 323.922,152.339 322.837,151.600 322.834 C 151.270 322.832,151.606 323.094,152.346 323.416 M154.833 324.149 C 155.236 324.508,160.079 326.054,160.254 325.879 C 160.361 325.772,159.275 325.306,157.841 324.842 C 155.325 324.030,154.482 323.835,154.833 324.149 M241.200 324.625 C 240.430 324.916,240.094 325.165,240.454 325.177 C 240.814 325.190,241.714 324.937,242.454 324.616 C 244.120 323.892,243.116 323.900,241.200 324.625 M160.833 326.144 C 161.305 326.550,163.243 326.793,163.010 326.416 C 162.868 326.187,162.283 326.000,161.710 326.000 C 161.136 326.000,160.742 326.065,160.833 326.144 M234.800 326.625 C 234.030 326.916,233.694 327.165,234.054 327.177 C 234.414 327.190,235.314 326.937,236.054 326.616 C 237.720 325.892,236.716 325.900,234.800 326.625 M166.000 327.600 C 166.330 327.813,166.960 327.978,167.400 327.966 L 168.200 327.944 167.400 327.600 C 166.204 327.086,165.205 327.086,166.000 327.600 M170.400 328.590 C 171.390 328.919,172.740 329.168,173.400 329.144 C 174.472 329.105,174.429 329.064,173.000 328.766 C 169.372 328.009,168.466 327.948,170.400 328.590 M227.922 328.211 C 227.806 328.328,226.921 328.578,225.955 328.768 C 224.911 328.973,224.605 329.128,225.200 329.150 C 225.750 329.171,227.010 328.933,228.000 328.621 C 228.990 328.309,229.425 328.041,228.967 328.027 C 228.508 328.012,228.038 328.095,227.922 328.211 M175.600 329.600 C 176.150 329.776,176.960 329.920,177.400 329.920 C 178.033 329.920,177.992 329.854,177.200 329.600 C 176.650 329.424,175.840 329.280,175.400 329.280 C 174.767 329.280,174.808 329.346,175.600 329.600 M221.400 329.600 L 220.600 329.944 221.400 329.944 C 221.840 329.944,222.560 329.789,223.000 329.600 L 223.800 329.256 223.000 329.256 C 222.560 329.256,221.840 329.411,221.400 329.600 M179.233 330.146 C 179.325 330.226,180.390 330.394,181.600 330.519 C 183.020 330.666,183.446 330.629,182.800 330.413 C 181.809 330.083,178.913 329.865,179.233 330.146 M215.800 330.414 C 215.278 330.648,215.763 330.688,217.200 330.532 C 218.410 330.400,219.475 330.226,219.567 330.146 C 219.921 329.836,216.557 330.075,215.800 330.414 M185.500 331.093 C 186.435 331.177,187.965 331.177,188.900 331.093 C 189.835 331.009,189.070 330.940,187.200 330.940 C 185.330 330.940,184.565 331.009,185.500 331.093 M210.311 331.093 C 211.251 331.178,212.691 331.177,213.511 331.091 C 214.330 331.005,213.560 330.936,211.800 330.937 C 210.040 330.939,209.370 331.009,210.311 331.093 M195.921 331.499 C 198.188 331.570,201.788 331.570,203.921 331.498 C 206.055 331.426,204.200 331.368,199.800 331.368 C 195.400 331.368,193.655 331.427,195.921 331.499 " stroke="none" fill="#9c82d2" fill-rule="evenodd"></path><path id="path4" d="M77.865 147.092 C 77.461 148.142,76.696 149.903,76.165 151.006 C 75.634 152.109,75.200 153.213,75.200 153.460 C 75.200 153.707,74.931 154.424,74.602 155.054 C 74.274 155.684,74.004 156.479,74.002 156.820 C 74.001 157.161,73.856 157.611,73.681 157.820 C 73.505 158.029,73.040 159.190,72.647 160.400 C 72.254 161.610,71.793 162.960,71.622 163.400 C 71.344 164.117,70.537 166.849,69.613 170.200 C 65.126 186.479,64.810 208.824,68.801 227.800 C 70.204 234.471,73.753 246.286,74.612 247.145 C 75.036 247.569,74.731 246.421,73.564 243.200 C 67.718 227.063,65.090 204.736,67.261 189.657 C 67.797 185.934,67.804 185.919,68.562 186.757 C 68.981 187.221,69.701 187.579,70.162 187.554 C 70.804 187.518,70.842 187.465,70.322 187.329 C 69.341 187.070,69.902 186.000,71.019 186.000 C 71.533 186.000,72.064 186.180,72.200 186.400 C 72.697 187.203,74.805 186.850,75.188 185.900 C 75.387 185.405,75.561 185.225,75.575 185.500 C 75.605 186.094,77.444 186.176,77.800 185.600 C 78.315 184.767,78.800 185.252,78.800 186.600 C 78.800 187.370,78.980 188.000,79.200 188.000 C 79.420 188.000,79.604 188.765,79.610 189.700 C 79.615 190.635,79.809 192.120,80.041 193.000 C 80.273 193.880,80.611 195.500,80.793 196.600 C 80.974 197.700,81.320 199.107,81.561 199.726 C 81.803 200.345,82.000 201.383,82.000 202.031 C 82.000 202.680,82.157 203.523,82.350 203.905 C 82.542 204.287,83.006 205.950,83.380 207.600 C 83.755 209.250,84.297 211.410,84.586 212.400 C 86.113 217.626,86.554 219.054,86.811 219.600 C 87.163 220.350,87.866 222.399,88.664 225.000 C 89.002 226.100,89.530 227.478,89.839 228.062 C 90.148 228.646,90.400 229.338,90.400 229.601 C 90.400 229.864,90.925 230.570,91.568 231.170 L 92.735 232.260 93.239 231.230 C 93.516 230.664,93.756 230.035,93.771 229.833 C 93.809 229.357,94.800 229.023,94.800 229.487 C 94.800 229.681,94.596 230.044,94.347 230.293 C 93.791 230.849,94.175 232.000,94.918 232.000 C 95.216 232.000,95.883 231.550,96.400 231.000 C 96.953 230.412,97.785 230.000,98.421 230.000 C 99.015 230.000,99.732 229.723,100.013 229.384 C 100.924 228.286,106.162 228.734,106.331 229.923 C 106.517 231.234,107.765 230.900,107.927 229.497 C 108.076 228.202,108.794 228.088,109.800 229.200 C 110.198 229.640,110.772 230.000,111.075 230.000 C 111.957 230.000,112.157 228.836,111.415 228.017 C 110.657 227.179,111.153 226.716,113.784 225.808 C 114.516 225.556,115.073 225.019,115.244 224.400 C 115.494 223.494,115.524 223.482,115.560 224.268 C 115.596 225.040,116.669 227.475,117.205 228.000 C 117.317 228.110,118.276 229.910,119.334 232.000 C 123.234 239.702,129.208 248.564,136.400 257.315 C 139.944 261.627,151.819 273.001,153.361 273.559 C 153.602 273.647,154.227 274.139,154.748 274.653 C 155.270 275.167,155.850 275.493,156.037 275.377 C 156.224 275.261,156.787 275.420,157.289 275.731 C 159.009 276.795,163.404 276.210,162.438 275.045 C 162.169 274.722,162.120 274.373,162.325 274.246 C 162.815 273.944,163.200 274.379,163.200 275.236 C 163.200 275.885,163.293 275.892,164.415 275.332 C 165.313 274.885,165.569 274.532,165.395 273.985 C 165.202 273.376,165.432 273.198,166.680 272.991 C 169.071 272.593,169.308 272.455,169.083 271.596 C 168.969 271.158,169.038 270.700,169.238 270.577 C 169.437 270.454,169.600 270.729,169.600 271.189 C 169.600 272.200,170.741 272.737,171.234 271.958 C 171.487 271.559,171.589 271.543,171.594 271.900 C 171.597 272.175,171.870 272.400,172.200 272.400 C 172.530 272.400,172.800 272.580,172.800 272.800 C 172.800 273.020,173.076 273.200,173.413 273.200 C 173.749 273.200,174.129 273.470,174.255 273.800 C 174.382 274.130,174.826 274.400,175.243 274.400 C 175.659 274.400,176.001 274.535,176.003 274.700 C 176.006 275.102,178.319 276.400,179.032 276.400 C 179.345 276.400,179.600 276.580,179.600 276.800 C 179.600 277.020,179.784 277.200,180.008 277.200 C 180.232 277.200,181.129 277.650,182.000 278.200 C 182.871 278.750,183.858 279.200,184.192 279.200 C 184.526 279.200,184.800 279.345,184.800 279.523 C 184.800 279.701,185.565 280.179,186.500 280.586 C 187.435 280.993,189.190 281.769,190.400 282.311 C 191.610 282.853,193.230 283.553,194.000 283.867 C 194.770 284.182,195.713 284.610,196.095 284.819 C 196.477 285.029,197.116 285.200,197.515 285.200 C 197.914 285.200,198.411 285.355,198.620 285.544 C 198.829 285.733,199.900 286.180,201.000 286.536 C 202.100 286.892,204.380 287.638,206.067 288.192 C 207.754 288.746,209.569 289.200,210.101 289.200 C 210.632 289.200,211.199 289.332,211.360 289.494 C 212.131 290.265,219.593 291.519,231.200 292.827 C 236.045 293.373,248.996 293.131,253.600 292.407 C 259.980 291.405,272.768 288.072,273.780 287.147 C 273.989 286.956,274.383 286.800,274.656 286.800 C 274.929 286.800,276.704 286.080,278.600 285.200 C 280.496 284.320,282.217 283.600,282.424 283.600 C 282.631 283.600,282.800 283.420,282.800 283.200 C 282.800 282.980,282.970 282.800,283.178 282.800 C 284.260 282.800,289.200 279.348,289.200 278.591 C 289.200 277.679,290.491 276.400,291.413 276.400 C 291.949 276.400,293.424 275.628,295.815 274.097 C 296.247 273.821,296.870 273.474,297.200 273.327 C 300.025 272.065,307.580 266.778,311.519 263.305 C 315.669 259.647,321.228 253.600,320.441 253.600 C 320.199 253.600,320.000 253.744,320.000 253.920 C 320.000 255.328,309.691 264.643,303.703 268.646 C 293.178 275.680,281.309 280.046,264.060 283.229 C 261.575 283.687,259.333 285.600,261.280 285.600 C 261.653 285.600,261.653 285.707,261.280 286.080 C 261.016 286.344,260.800 287.044,260.800 287.637 C 260.800 288.475,260.557 288.777,259.700 289.000 L 258.600 289.286 259.600 289.700 C 260.555 290.096,260.520 290.131,258.800 290.492 C 257.810 290.700,256.829 291.035,256.620 291.235 C 256.411 291.436,255.278 291.600,254.103 291.600 C 252.928 291.600,250.580 291.886,248.885 292.236 C 244.000 293.245,232.706 292.811,221.600 291.187 C 219.950 290.945,217.880 290.584,217.000 290.384 C 216.120 290.184,214.140 289.733,212.600 289.383 C 211.060 289.032,209.350 288.603,208.800 288.429 C 208.250 288.255,206.720 287.796,205.400 287.410 C 204.080 287.023,202.640 286.569,202.200 286.400 C 201.760 286.232,199.330 285.319,196.800 284.372 C 192.674 282.827,184.406 278.855,179.000 275.820 C 170.412 270.999,157.619 260.291,149.787 251.369 C 145.292 246.248,145.104 246.016,142.136 241.898 C 140.670 239.864,139.320 238.140,139.135 238.067 C 138.951 237.993,138.800 237.700,138.800 237.416 C 138.800 237.131,138.547 236.688,138.237 236.431 C 137.927 236.174,137.379 235.341,137.018 234.582 C 136.657 233.822,136.191 233.200,135.981 233.200 C 135.772 233.200,135.600 232.840,135.600 232.400 C 135.600 231.960,135.441 231.600,135.247 231.600 C 135.052 231.600,134.799 231.240,134.684 230.800 C 134.569 230.360,134.278 230.000,134.037 230.000 C 133.375 230.000,133.514 232.099,134.246 233.145 C 134.870 234.035,134.859 234.063,133.946 233.934 C 133.381 233.854,132.998 233.528,132.995 233.125 C 132.992 232.754,132.605 231.972,132.134 231.387 C 131.162 230.179,130.881 230.568,130.861 233.152 C 130.849 234.717,128.934 237.094,128.243 236.403 C 128.021 236.181,127.372 236.000,126.800 236.000 C 126.228 236.000,125.574 235.814,125.347 235.587 C 125.063 235.303,124.944 235.455,124.967 236.074 C 124.987 236.629,124.731 237.030,124.300 237.117 C 123.870 237.204,123.600 237.016,123.600 236.629 C 123.600 236.283,123.375 235.998,123.100 235.995 C 122.825 235.993,122.256 235.273,121.836 234.395 C 121.415 233.518,120.920 232.800,120.736 232.800 C 120.551 232.800,120.400 232.544,120.400 232.231 C 120.400 231.918,119.700 230.253,118.845 228.531 C 116.562 223.932,115.200 220.846,115.200 220.269 C 115.200 219.989,115.040 219.589,114.844 219.380 C 114.441 218.949,111.778 211.230,110.988 208.200 C 110.701 207.100,110.085 204.580,109.619 202.600 C 109.152 200.620,108.606 198.370,108.404 197.600 C 108.201 196.830,107.924 195.032,107.787 193.604 C 107.651 192.176,107.383 190.821,107.193 190.592 C 107.003 190.363,106.792 189.205,106.724 188.019 C 106.580 185.517,105.802 184.900,105.150 186.772 C 104.679 188.123,103.419 189.078,103.001 188.401 C 102.344 187.338,100.453 187.973,100.325 189.300 C 100.157 191.046,96.961 191.467,95.351 189.954 L 94.400 189.061 93.474 189.930 C 92.779 190.583,92.051 190.800,90.554 190.800 C 89.457 190.800,88.352 191.008,88.097 191.263 C 87.763 191.597,87.488 191.605,87.113 191.294 C 86.826 191.056,85.424 190.730,83.996 190.568 C 81.010 190.231,80.434 189.723,80.406 187.400 C 80.396 186.520,80.127 184.720,79.808 183.400 C 79.489 182.080,79.219 180.010,79.207 178.800 C 79.195 177.590,78.922 174.890,78.600 172.800 C 77.900 168.259,77.793 153.688,78.429 149.587 C 79.030 145.716,78.795 144.678,77.865 147.092 M113.123 224.430 C 113.044 224.667,112.809 224.860,112.600 224.860 C 112.391 224.860,112.156 224.667,112.077 224.430 C 111.998 224.194,112.233 224.000,112.600 224.000 C 112.967 224.000,113.202 224.194,113.123 224.430 M74.800 247.939 C 74.800 248.198,74.967 248.723,75.171 249.105 C 75.633 249.969,76.932 252.890,77.775 254.961 C 78.124 255.820,78.495 256.438,78.599 256.335 C 78.764 256.170,75.375 248.064,74.960 247.633 C 74.872 247.542,74.800 247.679,74.800 247.939 M321.600 252.444 C 321.050 252.898,320.813 253.161,321.072 253.028 C 321.775 252.669,322.144 253.545,321.577 254.227 C 321.307 254.553,321.176 254.909,321.286 255.019 C 321.624 255.358,322.293 254.267,322.586 252.900 C 322.912 251.375,322.900 251.370,321.600 252.444 M320.397 256.831 C 320.091 257.584,318.954 259.730,317.870 261.600 C 316.786 263.470,315.696 265.363,315.449 265.806 C 315.202 266.249,314.620 267.149,314.157 267.806 C 312.158 270.636,311.218 272.368,311.804 272.143 C 312.132 272.017,312.400 271.726,312.400 271.495 C 312.400 271.264,312.850 270.486,313.400 269.764 C 313.950 269.043,314.400 268.261,314.400 268.027 C 314.400 267.792,314.552 267.600,314.737 267.600 C 314.922 267.600,315.417 266.925,315.837 266.100 C 316.257 265.275,316.719 264.509,316.864 264.399 C 317.396 263.993,321.224 256.273,321.091 255.874 C 321.016 255.648,320.704 256.078,320.397 256.831 M78.800 256.836 C 78.800 257.211,80.411 260.400,80.601 260.400 C 80.701 260.400,80.570 259.905,80.310 259.300 C 79.801 258.118,78.800 256.484,78.800 256.836 M80.800 260.988 C 80.800 261.430,84.417 267.600,84.676 267.600 C 84.786 267.600,84.373 266.745,83.758 265.700 C 83.143 264.655,82.311 263.125,81.910 262.300 C 81.267 260.976,80.800 260.424,80.800 260.988 M85.364 269.131 C 85.711 269.801,86.163 270.454,86.370 270.581 C 86.576 270.709,86.476 270.274,86.147 269.615 C 85.818 268.955,85.366 268.303,85.142 268.164 C 84.917 268.025,85.018 268.460,85.364 269.131 M86.800 271.429 C 86.800 271.554,87.025 271.907,87.300 272.211 C 87.575 272.516,88.790 274.206,90.000 275.967 C 91.210 277.728,92.356 279.175,92.547 279.184 C 92.739 279.193,92.449 278.615,91.904 277.900 C 91.359 277.185,90.063 275.385,89.025 273.900 C 87.263 271.378,86.800 270.864,86.800 271.429 M309.347 274.900 C 308.511 276.055,307.729 277.090,307.611 277.200 C 307.492 277.310,306.866 278.120,306.220 279.000 C 301.858 284.936,292.189 295.020,286.000 300.088 C 285.010 300.899,283.421 302.198,282.469 302.976 C 281.517 303.753,279.301 305.401,277.546 306.638 C 275.790 307.875,274.464 308.998,274.599 309.132 C 274.733 309.267,274.969 309.184,275.122 308.948 C 275.275 308.712,276.210 308.016,277.200 307.400 C 278.190 306.784,279.090 306.168,279.200 306.030 C 279.310 305.892,280.210 305.159,281.200 304.400 C 282.190 303.641,283.090 302.926,283.200 302.810 C 283.310 302.695,284.210 301.972,285.200 301.206 C 286.190 300.439,287.349 299.539,287.775 299.206 C 289.257 298.048,301.417 285.790,302.741 284.119 C 303.473 283.195,304.427 282.025,304.861 281.519 C 305.294 281.014,305.998 280.194,306.424 279.697 C 306.851 279.200,307.200 278.658,307.200 278.493 C 307.200 278.327,307.627 277.731,308.150 277.168 C 309.157 276.081,311.328 272.800,311.039 272.800 C 310.945 272.800,310.184 273.745,309.347 274.900 M93.839 281.041 C 96.522 284.835,107.022 295.975,111.142 299.400 C 111.936 300.060,109.614 297.630,105.984 294.000 C 102.353 290.370,98.306 286.051,96.991 284.402 C 93.921 280.552,92.182 278.698,93.839 281.041 M112.819 300.673 C 112.848 301.175,121.200 307.548,121.200 307.068 C 121.200 306.958,120.255 306.184,119.100 305.347 C 117.945 304.511,116.910 303.730,116.800 303.613 C 116.031 302.793,112.804 300.410,112.819 300.673 M121.600 307.346 C 121.600 307.456,122.140 307.930,122.800 308.400 C 123.460 308.870,124.000 309.164,124.000 309.054 C 124.000 308.944,123.460 308.470,122.800 308.000 C 122.140 307.530,121.600 307.236,121.600 307.346 M124.400 309.386 C 124.400 309.699,126.850 311.283,127.040 311.093 C 127.147 310.986,126.596 310.523,125.817 310.063 C 125.038 309.603,124.400 309.299,124.400 309.386 M270.894 311.090 C 269.296 312.098,268.062 312.996,268.152 313.085 C 268.340 313.273,274.000 309.709,274.000 309.403 C 274.000 309.122,274.122 309.056,270.894 311.090 M130.984 313.575 C 131.213 313.945,133.507 315.200,133.954 315.200 C 134.082 315.200,133.523 314.750,132.714 314.200 C 131.173 313.153,130.594 312.944,130.984 313.575 M266.000 314.063 C 265.230 314.535,263.731 315.361,262.670 315.897 C 261.608 316.434,260.822 316.955,260.923 317.056 C 261.023 317.157,261.802 316.846,262.653 316.366 C 263.504 315.885,264.876 315.138,265.702 314.705 C 266.528 314.271,267.304 313.756,267.426 313.559 C 267.747 313.039,267.560 313.105,266.000 314.063 M138.576 317.813 C 139.004 318.136,139.533 318.400,139.753 318.400 C 139.973 318.400,139.804 318.136,139.376 317.813 C 138.949 317.490,138.420 317.225,138.200 317.225 C 137.980 317.225,138.149 317.490,138.576 317.813 M258.257 318.067 C 257.408 318.496,256.792 318.925,256.887 319.021 C 257.086 319.219,260.400 317.681,260.400 317.391 C 260.400 317.081,259.891 317.241,258.257 318.067 M253.600 320.219 C 251.197 321.466,252.111 321.468,254.625 320.221 C 255.711 319.683,256.330 319.252,256.000 319.264 C 255.670 319.275,254.590 319.705,253.600 320.219 M147.376 321.813 C 147.804 322.136,148.434 322.399,148.776 322.398 C 149.119 322.396,148.884 322.126,148.254 321.798 C 146.804 321.041,146.366 321.049,147.376 321.813 M250.000 321.833 C 249.377 322.179,249.235 322.390,249.624 322.394 C 249.966 322.397,250.596 322.136,251.024 321.813 C 251.994 321.078,251.337 321.092,250.000 321.833 M152.031 323.551 C 152.969 324.163,156.445 325.288,156.677 325.056 C 156.788 324.945,156.006 324.590,154.939 324.266 C 153.873 323.943,152.640 323.557,152.200 323.409 C 151.550 323.190,151.518 323.217,152.031 323.551 M245.380 323.561 C 245.171 323.760,244.640 324.009,244.200 324.115 C 243.420 324.303,243.420 324.308,244.224 324.354 C 244.676 324.379,245.396 324.136,245.824 323.813 C 246.251 323.490,246.411 323.220,246.180 323.213 C 245.949 323.206,245.589 323.363,245.380 323.561 M157.833 325.593 C 158.048 325.808,158.849 326.087,159.613 326.211 L 161.000 326.437 159.400 325.824 C 157.509 325.101,157.311 325.071,157.833 325.593 M239.400 325.600 C 239.264 325.820,238.668 326.025,238.076 326.054 C 237.168 326.100,237.137 326.136,237.877 326.279 C 238.359 326.373,239.259 326.176,239.877 325.841 C 240.628 325.434,240.776 325.227,240.324 325.216 C 239.952 325.207,239.536 325.380,239.400 325.600 M161.600 326.800 C 161.930 327.013,162.560 327.178,163.000 327.166 L 163.800 327.144 163.000 326.800 C 161.804 326.286,160.805 326.286,161.600 326.800 M165.400 327.778 C 166.060 328.100,167.140 328.351,167.800 328.336 C 168.985 328.308,168.983 328.304,167.600 327.989 C 166.830 327.813,165.750 327.562,165.200 327.431 C 164.354 327.228,164.385 327.282,165.400 327.778 M232.671 327.462 C 232.527 327.606,231.732 327.856,230.904 328.016 C 229.537 328.281,229.509 328.311,230.600 328.336 C 231.828 328.365,234.713 327.291,233.567 327.232 C 233.218 327.215,232.815 327.318,232.671 327.462 M169.800 328.800 C 169.936 329.020,170.442 329.187,170.924 329.172 C 171.769 329.145,171.771 329.131,171.000 328.800 C 169.899 328.327,169.508 328.327,169.800 328.800 M227.400 328.800 C 226.686 329.107,226.715 329.147,227.676 329.172 C 228.268 329.187,228.864 329.020,229.000 328.800 C 229.295 328.322,228.511 328.322,227.400 328.800 M174.600 329.780 C 175.480 330.087,176.920 330.330,177.800 330.319 L 179.400 330.300 177.800 330.012 C 176.920 329.853,175.480 329.611,174.600 329.472 L 173.000 329.221 174.600 329.780 M223.506 329.428 C 223.381 329.553,222.406 329.802,221.339 329.981 L 219.400 330.306 221.000 330.322 C 222.895 330.342,226.486 329.312,224.767 329.242 C 224.198 329.219,223.631 329.302,223.506 329.428 M180.600 330.800 C 181.040 330.989,182.030 331.135,182.800 331.125 L 184.200 331.105 183.000 330.800 C 181.203 330.343,179.536 330.343,180.600 330.800 M215.800 330.800 L 214.600 331.105 216.000 331.147 C 216.770 331.169,217.670 331.013,218.000 330.800 C 218.739 330.323,217.676 330.323,215.800 330.800 M189.000 331.657 C 190.320 331.798,195.090 331.913,199.600 331.913 C 204.110 331.913,208.880 331.798,210.200 331.657 C 211.520 331.515,206.750 331.400,199.600 331.400 C 192.450 331.400,187.680 331.515,189.000 331.657 " stroke="none" fill="#ae90d9" fill-rule="evenodd"></path></g></svg>